Input #0, lavfi, from 'testsrc2=size=1920x1080:rate=30':
  Duration: N/A, start: 0.000000, bitrate: N/A
    Stream #0:0: Video: rawvideo (I420 / 0x30323449), yuv420p, 1920x1080 [SAR 1:1 DAR 16:9], 30 tbr, 30 tbn, 30 tbc
Stream mapping:
  Stream #0:0 -> #0:0 (rawvideo (native) -> h264 (libx264))
Press [q] to stop, [?] for help
[libx264 @ 0x55c3db0c6d00] using SAR=1/1
[libx264 @ 0x55c3db0c6d00] using cpu capabilities: MMX2 SSE2Fast SSSE3 SSE4.2 AVX FMA3 BMI2 AVX2
[libx264 @ 0x55c3db0c6d00] profile High, level 4.0
[libx264 @ 0x55c3db0c6d00] 264 - core 152 r2854 e9a5903 - H.264/MPEG-4 AVC codec - Copyleft 2003-2017 - http://www.videolan.org/x264.html - options: cabac=1 ref=3 deblock=1:0:0 analyse=0x3:0x113 me=hex subme=2 psy=1 psy_rd=1.00:0.00 mixed_ref=0 me_range=16 chroma_me=1 trellis=0 8x8dct=1 cqm=0 deadzone=21,11 fast_pskip=1 chroma_qp_offset=0 threads=24 lookahead_threads=8 sliced_threads=0 nr=0 decimate=1 interlaced=0 bluray_compat=0 constrained_intra=0 bframes=0 weightp=1 keyint=150 keyint_min=76 scenecut=0 intra_refresh=0 rc_lookahead=10 rc=abr mbtree=1 bitrate=4000 ratetol=1.0 qcomp=0.60 qpmin=0 qpmax=69 qpstep=4 ip_ratio=1.40 aq=1:1.00
[dash @ 0x55c3db0c5500] Opening 'http://encoder:8080/ldash/event1/init-stream1-0.m4s' for writing
Output #0, dash, to 'http://encoder:8080/ldash/event1/manifest.mpd':
  Metadata:
    encoder         : Lavf58.19.100
    Stream #0:0: Video: h264 (libx264), yuv420p, 1920x1080 [SAR 1:1 DAR 16:9], q=-1--1, 4000 kb/s, 30 fps, 15360 tbn, 30 tbc
    Metadata:
      encoder         : Lavc58.33.100 libx264
    Side data:
      cpb: bitrate max/min/avg: 0/0/4000000 buffer size: 0 vbv_delay: -1
frame=   15 fps=0.0 q=0.0 size=N/A time=00:00:00.00 bitrate=N/A speed=   0x    frame=   30 fps= 30 q=0.0 size=N/A time=00:00:00.00 bitrate=N/A speed=   0x    [dash @ 0x55c3db0c5500] Opening 'http://encoder:8080/ldash/event1/chunk-stream-0-00001.m4s' for writing
frame=   45 fps= 30 q=32.0 size=N/A time=00:00:00.30 bitrate=N/A speed=0.198x    frame=   60 fps= 30 q=33.0 size=N/A time=00:00:00.80 bitrate=N/A speed=0.395x    frame=   75 fps= 30 q=32.0 size=N/A time=00:00:01.30 bitrate=N/A speed=0.515x    frame=   90 fps= 30 q=31.0 size=N/A time=00:00:01.80 bitrate=N/A speed=0.595x    frame=  105 fps= 30 q=31.0 size=N/A time=00:00:02.30 bitrate=N/A speed=0.652x    frame=  121 fps= 30 q=32.0 size=N/A time=00:00:02.83 bitrate=N/A speed=0.702x    frame=  136 fps= 30 q=32.0 size=N/A time=00:00:03.33 bitrate=N/A speed=0.734x    frame=  151 fps= 30 q=32.0 size=N/A time=00:00:03.83 bitrate=N/A speed=0.761x    frame=  166 fps= 30 q=32.0 size=N/A time=00:00:04.33 bitrate=N/A speed=0.781x    frame=  181 fps= 30 q=32.0 size=N/A time=00:00:04.83 bitrate=N/A speed=0.798x    [dash @ 0x55c3db0c5500] Cannot use rename on non file protocol, this may lead to races and temporary partial files
[http @ 0x55c3db55f540] Opening 'http://encoder:8080/ldash/event1/chunk-stream-0-00002.m4s' for writing
frame=  196 fps= 30 q=32.0 size=N/A time=00:00:05.33 bitrate=N/A speed=0.812x    frame=  212 fps= 30 q=32.0 size=N/A time=00:00:05.86 bitrate=N/A speed=0.83x    frame=  227 fps= 30 q=32.0 size=N/A time=00:00:06.36 bitrate=N/A speed=0.841x    frame=  242 fps= 30 q=32.0 size=N/A time=00:00:06.86 bitrate=N/A speed=0.85x    frame=  257 fps= 30 q=32.0 size=N/A time=00:00:07.36 bitrate=N/A speed=0.858x    frame=  272 fps= 30 q=31.0 size=N/A time=00:00:07.86 bitrate=N/A speed=0.866x    frame=  287 fps= 30 q=31.0 size=N/A time=00:00:08.36 bitrate=N/A speed=0.873x    frame=  302 fps= 30 q=31.0 size=N/A time=00:00:08.86 bitrate=N/A speed=0.878x    frame=  318 fps= 30 q=31.0 size=N/A time=00:00:09.40 bitrate=N/A speed=0.887x    frame=  333 fps= 30 q=31.0 size=N/A time=00:00:09.90 bitrate=N/A speed=0.892x    [http @ 0x55c3dbf19500] Opening 'http://encoder:8080/ldash/event1/manifest.mpd' for writing
[http @ 0x55c3db55f540] Opening 'http://encoder:8080/ldash/event1/chunk-stream-0-00003.m4s' for writing
frame=  348 fps= 30 q=32.0 size=N/A time=00:00:10.40 bitrate=N/A speed=0.896x    frame=  363 fps= 30 q=32.0 size=N/A time=00:00:10.90 bitrate=N/A speed= 0.9x    frame=  378 fps= 30 q=31.0 size=N/A time=00:00:11.40 bitrate=N/A speed=0.903x    frame=  393 fps= 30 q=31.0 size=N/A time=00:00:11.90 bitrate=N/A speed=0.907x    frame=  408 fps= 30 q=31.0 size=N/A time=00:00:12.40 bitrate=N/A speed=0.91x    frame=  423 fps= 30 q=31.0 size=N/A time=00:00:12.90 bitrate=N/A speed=0.913x    frame=  439 fps= 30 q=31.0 size=N/A time=00:00:13.43 bitrate=N/A speed=0.918x    frame=  454 fps= 30 q=31.0 size=N/A time=00:00:13.93 bitrate=N/A speed=0.92x    frame=  469 fps= 30 q=31.0 size=N/A time=00:00:14.43 bitrate=N/A speed=0.922x    frame=  484 fps= 30 q=32.0 size=N/A time=00:00:14.93 bitrate=N/A speed=0.924x    [http @ 0x55c3dbf19500] Opening 'http://encoder:8080/ldash/event1/manifest.mpd' for writing
[http @ 0x55c3db55f540] Opening 'http://encoder:8080/ldash/event1/chunk-stream-0-00004.m4s' for writing
frame=  499 fps= 30 q=32.0 size=N/A time=00:00:15.43 bitrate=N/A speed=0.926x    frame=  515 fps= 30 q=31.0 size=N/A time=00:00:15.96 bitrate=N/A speed=0.93x    frame=  530 fps= 30 q=32.0 size=N/A time=00:00:16.46 bitrate=N/A speed=0.932x    frame=  545 fps= 30 q=32.0 size=N/A time=00:00:16.96 bitrate=N/A speed=0.934x    frame=  560 fps= 30 q=32.0 size=N/A time=00:00:17.46 bitrate=N/A speed=0.935x    frame=  575 fps= 30 q=31.0 size=N/A time=00:00:17.96 bitrate=N/A speed=0.937x    frame=  590 fps= 30 q=32.0 size=N/A time=00:00:18.46 bitrate=N/A speed=0.938x    frame=  605 fps= 30 q=32.0 size=N/A time=00:00:18.96 bitrate=N/A speed=0.939x    frame=  621 fps= 30 q=32.0 size=N/A time=00:00:19.50 bitrate=N/A speed=0.942x    [http @ 0x55c3dbf19500] Opening 'http://encoder:8080/ldash/event1/manifest.mpd' for writing
[http @ 0x55c3db55f540] Opening 'http://encoder:8080/ldash/event1/chunk-stream-0-00005.m4s' for writing
frame=  636 fps= 30 q=32.0 size=N/A time=00:00:20.00 bitrate=N/A speed=0.943x    frame=  651 fps= 30 q=32.0 size=N/A time=00:00:20.50 bitrate=N/A speed=0.944x    frame=  666 fps= 30 q=32.0 size=N/A time=00:00:21.00 bitrate=N/A speed=0.945x    frame=  681 fps= 30 q=32.0 size=N/A time=00:00:21.50 bitrate=N/A speed=0.946x    frame=  696 fps= 30 q=32.0 size=N/A time=00:00:22.00 bitrate=N/A speed=0.947x    frame=  711 fps= 30 q=32.0 size=N/A time=00:00:22.50 bitrate=N/A speed=0.948x    frame=  726 fps= 30 q=32.0 size=N/A time=00:00:23.00 bitrate=N/A speed=0.949x    frame=  742 fps= 30 q=31.0 size=N/A time=00:00:23.53 bitrate=N/A speed=0.951x    frame=  757 fps= 30 q=31.0 size=N/A time=00:00:24.03 bitrate=N/A speed=0.952x    frame=  772 fps= 30 q=31.0 size=N/A time=00:00:24.53 bitrate=N/A speed=0.953x    [http @ 0x55c3dbf19500] Opening 'http://encoder:8080/ldash/event1/manifest.mpd' for writing
[http @ 0x55c3db55f540] Opening 'http://encoder:8080/ldash/event1/chunk-stream-0-00006.m4s' for writing
frame=  787 fps= 30 q=31.0 size=N/A time=00:00:25.03 bitrate=N/A speed=0.954x    frame=  802 fps= 30 q=31.0 size=N/A time=00:00:25.53 bitrate=N/A speed=0.955x    frame=  817 fps= 30 q=31.0 size=N/A time=00:00:26.03 bitrate=N/A speed=0.955x    frame=  832 fps= 30 q=32.0 size=N/A time=00:00:26.53 bitrate=N/A speed=0.956x    frame=  847 fps= 30 q=32.0 size=N/A time=00:00:27.03 bitrate=N/A speed=0.957x    frame=  862 fps= 30 q=32.0 size=N/A time=00:00:27.53 bitrate=N/A speed=0.957x    frame=  878 fps= 30 q=32.0 size=N/A time=00:00:28.06 bitrate=N/A speed=0.959x    frame=  893 fps= 30 q=32.0 size=N/A time=00:00:28.56 bitrate=N/A speed=0.959x    frame=  908 fps= 30 q=32.0 size=N/A time=00:00:29.06 bitrate=N/A speed=0.96x    frame=  923 fps= 30 q=32.0 size=N/A time=00:00:29.56 bitrate=N/A speed=0.961x    [http @ 0x55c3dbf19500] Opening 'http://encoder:8080/ldash/event1/manifest.mpd' for writing
[http @ 0x55c3db55f540] Opening 'http://encoder:8080/ldash/event1/chunk-stream-0-00007.m4s' for writing
frame=  938 fps= 30 q=32.0 size=N/A time=00:00:30.06 bitrate=N/A speed=0.961x    frame=  953 fps= 30 q=32.0 size=N/A time=00:00:30.56 bitrate=N/A speed=0.962x    frame=  968 fps= 30 q=32.0 size=N/A time=00:00:31.06 bitrate=N/A speed=0.962x    frame=  984 fps= 30 q=32.0 size=N/A time=00:00:31.60 bitrate=N/A speed=0.963x    frame=  999 fps= 30 q=32.0 size=N/A time=00:00:32.10 bitrate=N/A speed=0.964x    frame= 1014 fps= 30 q=32.0 size=N/A time=00:00:32.60 bitrate=N/A speed=0.964x    frame= 1029 fps= 30 q=32.0 size=N/A time=00:00:33.10 bitrate=N/A speed=0.964x    frame= 1044 fps= 30 q=32.0 size=N/A time=00:00:33.60 bitrate=N/A speed=0.965x    frame= 1059 fps= 30 q=32.0 size=N/A time=00:00:34.10 bitrate=N/A speed=0.965x    frame= 1075 fps= 30 q=32.0 size=N/A time=00:00:34.63 bitrate=N/A speed=0.966x    [http @ 0x55c3dbf19500] Opening 'http://encoder:8080/ldash/event1/manifest.mpd' for writing
[http @ 0x55c3db55f540] Opening 'http://encoder:8080/ldash/event1/chunk-stream-0-00008.m4s' for writing
frame= 1090 fps= 30 q=32.0 size=N/A time=00:00:35.13 bitrate=N/A speed=0.967x    frame= 1105 fps= 30 q=32.0 size=N/A time=00:00:35.63 bitrate=N/A speed=0.967x    frame= 1120 fps= 30 q=31.0 size=N/A time=00:00:36.13 bitrate=N/A speed=0.967x    frame= 1135 fps= 30 q=31.0 size=N/A time=00:00:36.63 bitrate=N/A speed=0.967x    frame= 1151 fps= 30 q=31.0 size=N/A time=00:00:37.16 bitrate=N/A speed=0.969x    frame= 1166 fps= 30 q=31.0 size=N/A time=00:00:37.66 bitrate=N/A speed=0.969x    frame= 1181 fps= 30 q=31.0 size=N/A time=00:00:38.16 bitrate=N/A speed=0.969x    frame= 1196 fps= 30 q=31.0 size=N/A time=00:00:38.66 bitrate=N/A speed=0.97x    frame= 1211 fps= 30 q=31.0 size=N/A time=00:00:39.16 bitrate=N/A speed=0.97x    frame= 1226 fps= 30 q=32.0 size=N/A time=00:00:39.66 bitrate=N/A speed=0.97x    [http @ 0x55c3dbf19500] Opening 'http://encoder:8080/ldash/event1/manifest.mpd' for writing
[http @ 0x55c3db55f540] Opening 'http://encoder:8080/ldash/event1/chunk-stream-0-00009.m4s' for writing
frame= 1241 fps= 30 q=32.0 size=N/A time=00:00:40.16 bitrate=N/A speed=0.97x    frame= 1257 fps= 30 q=32.0 size=N/A time=00:00:40.70 bitrate=N/A speed=0.971x    frame= 1272 fps= 30 q=31.0 size=N/A time=00:00:41.20 bitrate=N/A speed=0.972x    frame= 1287 fps= 30 q=31.0 size=N/A time=00:00:41.70 bitrate=N/A speed=0.972x    frame= 1302 fps= 30 q=31.0 size=N/A time=00:00:42.20 bitrate=N/A speed=0.972x    frame= 1317 fps= 30 q=31.0 size=N/A time=00:00:42.70 bitrate=N/A speed=0.972x    frame= 1333 fps= 30 q=31.0 size=N/A time=00:00:43.23 bitrate=N/A speed=0.973x    frame= 1348 fps= 30 q=31.0 size=N/A time=00:00:43.73 bitrate=N/A speed=0.973x    frame= 1363 fps= 30 q=29.0 size=N/A time=00:00:44.23 bitrate=N/A speed=0.973x    frame= 1378 fps= 30 q=31.0 size=N/A time=00:00:44.73 bitrate=N/A speed=0.974x    [http @ 0x55c3dbf19500] Opening 'http://encoder:8080/ldash/event1/manifest.mpd' for writing
[http @ 0x55c3db55f540] Opening 'http://encoder:8080/ldash/event1/chunk-stream-0-00010.m4s' for writing
frame= 1393 fps= 30 q=31.0 size=N/A time=00:00:45.23 bitrate=N/A speed=0.974x    frame= 1408 fps= 30 q=31.0 size=N/A time=00:00:45.73 bitrate=N/A speed=0.974x    frame= 1423 fps= 30 q=31.0 size=N/A time=00:00:46.23 bitrate=N/A speed=0.974x    frame= 1438 fps= 30 q=31.0 size=N/A time=00:00:46.73 bitrate=N/A speed=0.974x    frame= 1454 fps= 30 q=31.0 size=N/A time=00:00:47.26 bitrate=N/A speed=0.975x    frame= 1469 fps= 30 q=31.0 size=N/A time=00:00:47.76 bitrate=N/A speed=0.975x    frame= 1484 fps= 30 q=31.0 size=N/A time=00:00:48.26 bitrate=N/A speed=0.975x    frame= 1499 fps= 30 q=31.0 size=N/A time=00:00:48.76 bitrate=N/A speed=0.975x    frame= 1514 fps= 30 q=31.0 size=N/A time=00:00:49.26 bitrate=N/A speed=0.976x    frame= 1530 fps= 30 q=31.0 size=N/A time=00:00:49.80 bitrate=N/A speed=0.976x    [http @ 0x55c3dbf19500] Opening 'http://encoder:8080/ldash/event1/manifest.mpd' for writing
[http @ 0x55c3db55f540] Opening 'http://encoder:8080/ldash/event1/chunk-stream-0-00011.m4s' for writing
frame= 1545 fps= 30 q=31.0 size=N/A time=00:00:50.30 bitrate=N/A speed=0.977x    frame= 1560 fps= 30 q=31.0 size=N/A time=00:00:50.80 bitrate=N/A speed=0.977x    frame= 1575 fps= 30 q=31.0 size=N/A time=00:00:51.30 bitrate=N/A speed=0.977x    frame= 1590 fps= 30 q=31.0 size=N/A time=00:00:51.80 bitrate=N/A speed=0.977x    frame= 1605 fps= 30 q=31.0 size=N/A time=00:00:52.30 bitrate=N/A speed=0.977x    frame= 1620 fps= 30 q=31.0 size=N/A time=00:00:52.80 bitrate=N/A speed=0.977x    frame= 1636 fps= 30 q=31.0 size=N/A time=00:00:53.33 bitrate=N/A speed=0.978x    frame= 1651 fps= 30 q=31.0 size=N/A time=00:00:53.83 bitrate=N/A speed=0.978x    frame= 1666 fps= 30 q=31.0 size=N/A time=00:00:54.33 bitrate=N/A speed=0.978x    frame= 1681 fps= 30 q=32.0 size=N/A time=00:00:54.83 bitrate=N/A speed=0.978x    [http @ 0x55c3dbf19500] Opening 'http://encoder:8080/ldash/event1/manifest.mpd' for writing
[http @ 0x55c3db55f540] Opening 'http://encoder:8080/ldash/event1/chunk-stream-0-00012.m4s' for writing
frame= 1696 fps= 30 q=31.0 size=N/A time=00:00:55.33 bitrate=N/A speed=0.978x    frame= 1711 fps= 30 q=31.0 size=N/A time=00:00:55.83 bitrate=N/A speed=0.978x    frame= 1727 fps= 30 q=31.0 size=N/A time=00:00:56.36 bitrate=N/A speed=0.979x    frame= 1742 fps= 30 q=31.0 size=N/A time=00:00:56.86 bitrate=N/A speed=0.979x    frame= 1757 fps= 30 q=31.0 size=N/A time=00:00:57.36 bitrate=N/A speed=0.979x    frame= 1772 fps= 30 q=31.0 size=N/A time=00:00:57.86 bitrate=N/A speed=0.979x    frame= 1787 fps= 30 q=31.0 size=N/A time=00:00:58.36 bitrate=N/A speed=0.979x    frame= 1802 fps= 30 q=31.0 size=N/A time=00:00:58.86 bitrate=N/A speed=0.98x    frame= 1817 fps= 30 q=31.0 size=N/A time=00:00:59.36 bitrate=N/A speed=0.98x    frame= 1833 fps= 30 q=31.0 size=N/A time=00:00:59.90 bitrate=N/A speed=0.98x    [http @ 0x55c3dbf19500] Opening 'http://encoder:8080/ldash/event1/manifest.mpd' for writing
[http @ 0x55c3db55f540] Opening 'http://encoder:8080/ldash/event1/chunk-stream-0-00013.m4s' for writing
frame= 1848 fps= 30 q=31.0 size=N/A time=00:01:00.40 bitrate=N/A speed=0.98x    frame= 1863 fps= 30 q=31.0 size=N/A time=00:01:00.90 bitrate=N/A speed=0.98x    frame= 1878 fps= 30 q=31.0 size=N/A time=00:01:01.40 bitrate=N/A speed=0.98x    frame= 1894 fps= 30 q=31.0 size=N/A time=00:01:01.93 bitrate=N/A speed=0.981x    frame= 1909 fps= 30 q=31.0 size=N/A time=00:01:02.43 bitrate=N/A speed=0.981x    frame= 1924 fps= 30 q=31.0 size=N/A time=00:01:02.93 bitrate=N/A speed=0.981x    frame= 1939 fps= 30 q=31.0 size=N/A time=00:01:03.43 bitrate=N/A speed=0.981x    frame= 1955 fps= 30 q=31.0 size=N/A time=00:01:03.96 bitrate=N/A speed=0.982x    frame= 1970 fps= 30 q=31.0 size=N/A time=00:01:04.46 bitrate=N/A speed=0.982x    frame= 1985 fps= 30 q=31.0 size=N/A time=00:01:04.96 bitrate=N/A speed=0.982x    [http @ 0x55c3dbf19500] Opening 'http://encoder:8080/ldash/event1/manifest.mpd' for writing
[http @ 0x55c3db55f540] Opening 'http://encoder:8080/ldash/event1/chunk-stream-0-00014.m4s' for writing
frame= 2000 fps= 30 q=31.0 size=N/A time=00:01:05.46 bitrate=N/A speed=0.982x    frame= 2015 fps= 30 q=31.0 size=N/A time=00:01:05.96 bitrate=N/A speed=0.982x    frame= 2030 fps= 30 q=31.0 size=N/A time=00:01:06.46 bitrate=N/A speed=0.982x    frame= 2045 fps= 30 q=31.0 size=N/A time=00:01:06.96 bitrate=N/A speed=0.982x    frame= 2060 fps= 30 q=31.0 size=N/A time=00:01:07.46 bitrate=N/A speed=0.982x    frame= 2075 fps= 30 q=31.0 size=N/A time=00:01:07.96 bitrate=N/A speed=0.982x    frame= 2091 fps= 30 q=31.0 size=N/A time=00:01:08.50 bitrate=N/A speed=0.983x    frame= 2106 fps= 30 q=31.0 size=N/A time=00:01:09.00 bitrate=N/A speed=0.983x    frame= 2121 fps= 30 q=31.0 size=N/A time=00:01:09.50 bitrate=N/A speed=0.983x    [http @ 0x55c3dbf19500] Opening 'http://encoder:8080/ldash/event1/manifest.mpd' for writing
[http @ 0x55c3db55f540] Opening 'http://encoder:8080/ldash/event1/chunk-stream-0-00015.m4s' for writing
frame= 2136 fps= 30 q=31.0 size=N/A time=00:01:10.00 bitrate=N/A speed=0.983x    frame= 2151 fps= 30 q=31.0 size=N/A time=00:01:10.50 bitrate=N/A speed=0.983x    frame= 2166 fps= 30 q=31.0 size=N/A time=00:01:11.00 bitrate=N/A speed=0.983x    frame= 2181 fps= 30 q=31.0 size=N/A time=00:01:11.50 bitrate=N/A speed=0.983x    frame= 2196 fps= 30 q=31.0 size=N/A time=00:01:12.00 bitrate=N/A speed=0.983x    frame= 2211 fps= 30 q=31.0 size=N/A time=00:01:12.50 bitrate=N/A speed=0.983x    frame= 2227 fps= 30 q=31.0 size=N/A time=00:01:13.03 bitrate=N/A speed=0.984x    frame= 2242 fps= 30 q=31.0 size=N/A time=00:01:13.53 bitrate=N/A speed=0.984x    frame= 2257 fps= 30 q=31.0 size=N/A time=00:01:14.03 bitrate=N/A speed=0.984x    frame= 2272 fps= 30 q=31.0 size=N/A time=00:01:14.53 bitrate=N/A speed=0.984x    [http @ 0x55c3dbf19500] Opening 'http://encoder:8080/ldash/event1/manifest.mpd' for writing
[http @ 0x55c3db55f540] Opening 'http://encoder:8080/ldash/event1/chunk-stream-0-00016.m4s' for writing
frame= 2287 fps= 30 q=31.0 size=N/A time=00:01:15.03 bitrate=N/A speed=0.984x    frame= 2303 fps= 30 q=31.0 size=N/A time=00:01:15.56 bitrate=N/A speed=0.984x    frame= 2318 fps= 30 q=31.0 size=N/A time=00:01:16.06 bitrate=N/A speed=0.984x    frame= 2333 fps= 30 q=31.0 size=N/A time=00:01:16.56 bitrate=N/A speed=0.984x    frame= 2348 fps= 30 q=31.0 size=N/A time=00:01:17.06 bitrate=N/A speed=0.985x    frame= 2363 fps= 30 q=31.0 size=N/A time=00:01:17.56 bitrate=N/A speed=0.985x    frame= 2378 fps= 30 q=31.0 size=N/A time=00:01:18.06 bitrate=N/A speed=0.985x    frame= 2393 fps= 30 q=31.0 size=N/A time=00:01:18.56 bitrate=N/A speed=0.985x    frame= 2408 fps= 30 q=31.0 size=N/A time=00:01:19.06 bitrate=N/A speed=0.985x    frame= 2424 fps= 30 q=31.0 size=N/A time=00:01:19.60 bitrate=N/A speed=0.985x    [dash @ 0x55c3db0c5500] Opening 'http://encoder:8080/ldash/event1/chunk-stream-0-00001.m4s' for writing
[http @ 0x55c3dbf19500] Opening 'http://encoder:8080/ldash/event1/manifest.mpd' for writing
[http @ 0x55c3db55f540] Opening 'http://encoder:8080/ldash/event1/chunk-stream-0-00017.m4s' for writing
frame= 2439 fps= 30 q=31.0 size=N/A time=00:01:20.10 bitrate=N/A speed=0.985x    frame= 2454 fps= 30 q=31.0 size=N/A time=00:01:20.60 bitrate=N/A speed=0.985x    frame= 2469 fps= 30 q=31.0 size=N/A time=00:01:21.10 bitrate=N/A speed=0.985x    frame= 2485 fps= 30 q=31.0 size=N/A time=00:01:21.63 bitrate=N/A speed=0.985x    frame= 2500 fps= 30 q=31.0 size=N/A time=00:01:22.13 bitrate=N/A speed=0.985x    frame= 2515 fps= 30 q=31.0 size=N/A time=00:01:22.63 bitrate=N/A speed=0.986x    frame= 2530 fps= 30 q=31.0 size=N/A time=00:01:23.13 bitrate=N/A speed=0.986x    frame= 2545 fps= 30 q=31.0 size=N/A time=00:01:23.63 bitrate=N/A speed=0.986x    frame= 2560 fps= 30 q=31.0 size=N/A time=00:01:24.13 bitrate=N/A speed=0.986x    frame= 2576 fps= 30 q=31.0 size=N/A time=00:01:24.66 bitrate=N/A speed=0.986x    [dash @ 0x55c3db0c5500] Opening 'http://encoder:8080/ldash/event1/chunk-stream-0-00002.m4s' for writing
[http @ 0x55c3dbf19500] Opening 'http://encoder:8080/ldash/event1/manifest.mpd' for writing
[http @ 0x55c3db55f540] Opening 'http://encoder:8080/ldash/event1/chunk-stream-0-00018.m4s' for writing
frame= 2591 fps= 30 q=31.0 size=N/A time=00:01:25.16 bitrate=N/A speed=0.986x    frame= 2606 fps= 30 q=31.0 size=N/A time=00:01:25.66 bitrate=N/A speed=0.986x    frame= 2621 fps= 30 q=31.0 size=N/A time=00:01:26.16 bitrate=N/A speed=0.986x    frame= 2636 fps= 30 q=31.0 size=N/A time=00:01:26.66 bitrate=N/A speed=0.986x    frame= 2651 fps= 30 q=32.0 size=N/A time=00:01:27.16 bitrate=N/A speed=0.986x    frame= 2667 fps= 30 q=31.0 size=N/A time=00:01:27.70 bitrate=N/A speed=0.986x    frame= 2682 fps= 30 q=31.0 size=N/A time=00:01:28.20 bitrate=N/A speed=0.986x    frame= 2697 fps= 30 q=31.0 size=N/A time=00:01:28.70 bitrate=N/A speed=0.986x    frame= 2712 fps= 30 q=31.0 size=N/A time=00:01:29.20 bitrate=N/A speed=0.986x    frame= 2727 fps= 30 q=31.0 size=N/A time=00:01:29.70 bitrate=N/A speed=0.986x    [dash @ 0x55c3db0c5500] Opening 'http://encoder:8080/ldash/event1/chunk-stream-0-00003.m4s' for writing
[http @ 0x55c3dbf19500] Opening 'http://encoder:8080/ldash/event1/manifest.mpd' for writing
[http @ 0x55c3db55f540] Opening 'http://encoder:8080/ldash/event1/chunk-stream-0-00019.m4s' for writing
frame= 2743 fps= 30 q=32.0 size=N/A time=00:01:30.23 bitrate=N/A speed=0.987x    frame= 2758 fps= 30 q=32.0 size=N/A time=00:01:30.73 bitrate=N/A speed=0.987x    frame= 2773 fps= 30 q=32.0 size=N/A time=00:01:31.23 bitrate=N/A speed=0.987x    frame= 2788 fps= 30 q=32.0 size=N/A time=00:01:31.73 bitrate=N/A speed=0.987x    frame= 2803 fps= 30 q=31.0 size=N/A time=00:01:32.23 bitrate=N/A speed=0.987x    frame= 2819 fps= 30 q=31.0 size=N/A time=00:01:32.76 bitrate=N/A speed=0.987x    frame= 2834 fps= 30 q=31.0 size=N/A time=00:01:33.26 bitrate=N/A speed=0.987x    frame= 2849 fps= 30 q=31.0 size=N/A time=00:01:33.76 bitrate=N/A speed=0.987x    frame= 2864 fps= 30 q=32.0 size=N/A time=00:01:34.26 bitrate=N/A speed=0.987x    frame= 2879 fps= 30 q=32.0 size=N/A time=00:01:34.76 bitrate=N/A speed=0.987x    [dash @ 0x55c3db0c5500] Opening 'http://encoder:8080/ldash/event1/chunk-stream-0-00004.m4s' for writing
[http @ 0x55c3dbf19500] Opening 'http://encoder:8080/ldash/event1/manifest.mpd' for writing
[http @ 0x55c3db55f540] Opening 'http://encoder:8080/ldash/event1/chunk-stream-0-00020.m4s' for writing
frame= 2894 fps= 30 q=32.0 size=N/A time=00:01:35.26 bitrate=N/A speed=0.987x    frame= 2909 fps= 30 q=31.0 size=N/A time=00:01:35.76 bitrate=N/A speed=0.987x    frame= 2924 fps= 30 q=31.0 size=N/A time=00:01:36.26 bitrate=N/A speed=0.987x    frame= 2940 fps= 30 q=31.0 size=N/A time=00:01:36.80 bitrate=N/A speed=0.988x    frame= 2955 fps= 30 q=31.0 size=N/A time=00:01:37.30 bitrate=N/A speed=0.988x    frame= 2970 fps= 30 q=31.0 size=N/A time=00:01:37.80 bitrate=N/A speed=0.988x    frame= 2985 fps= 30 q=31.0 size=N/A time=00:01:38.30 bitrate=N/A speed=0.988x    frame= 3000 fps= 30 q=32.0 size=N/A time=00:01:38.80 bitrate=N/A speed=0.988x    frame= 3015 fps= 30 q=32.0 size=N/A time=00:01:39.30 bitrate=N/A speed=0.988x    frame= 3030 fps= 30 q=32.0 size=N/A time=00:01:39.80 bitrate=N/A speed=0.988x    [dash @ 0x55c3db0c5500] Opening 'http://encoder:8080/ldash/event1/chunk-stream-0-00005.m4s' for writing
[http @ 0x55c3dbf19500] Opening 'http://encoder:8080/ldash/event1/manifest.mpd' for writing
[http @ 0x55c3db55f540] Opening 'http://encoder:8080/ldash/event1/chunk-stream-0-00021.m4s' for writing
frame= 3045 fps= 30 q=32.0 size=N/A time=00:01:40.30 bitrate=N/A speed=0.988x    frame= 3060 fps= 30 q=32.0 size=N/A time=00:01:40.80 bitrate=N/A speed=0.988x    frame= 3076 fps= 30 q=31.0 size=N/A time=00:01:41.33 bitrate=N/A speed=0.988x    frame= 3091 fps= 30 q=31.0 size=N/A time=00:01:41.83 bitrate=N/A speed=0.988x    frame= 3106 fps= 30 q=31.0 size=N/A time=00:01:42.33 bitrate=N/A speed=0.988x    frame= 3121 fps= 30 q=32.0 size=N/A time=00:01:42.83 bitrate=N/A speed=0.988x    frame= 3136 fps= 30 q=31.0 size=N/A time=00:01:43.33 bitrate=N/A speed=0.988x    frame= 3151 fps= 30 q=31.0 size=N/A time=00:01:43.83 bitrate=N/A speed=0.988x    frame= 3166 fps= 30 q=31.0 size=N/A time=00:01:44.33 bitrate=N/A speed=0.988x    frame= 3182 fps= 30 q=31.0 size=N/A time=00:01:44.86 bitrate=N/A speed=0.989x    [dash @ 0x55c3db0c5500] Opening 'http://encoder:8080/ldash/event1/chunk-stream-0-00006.m4s' for writing
[http @ 0x55c3dbf19500] Opening 'http://encoder:8080/ldash/event1/manifest.mpd' for writing
[http @ 0x55c3db55f540] Opening 'http://encoder:8080/ldash/event1/chunk-stream-0-00022.m4s' for writing
frame= 3197 fps= 30 q=31.0 size=N/A time=00:01:45.36 bitrate=N/A speed=0.989x    frame= 3212 fps= 30 q=31.0 size=N/A time=00:01:45.86 bitrate=N/A speed=0.989x    frame= 3227 fps= 30 q=31.0 size=N/A time=00:01:46.36 bitrate=N/A speed=0.989x    frame= 3242 fps= 30 q=31.0 size=N/A time=00:01:46.86 bitrate=N/A speed=0.989x    frame= 3257 fps= 30 q=31.0 size=N/A time=00:01:47.36 bitrate=N/A speed=0.989x    frame= 3272 fps= 30 q=31.0 size=N/A time=00:01:47.86 bitrate=N/A speed=0.989x    frame= 3288 fps= 30 q=31.0 size=N/A time=00:01:48.40 bitrate=N/A speed=0.989x    frame= 3303 fps= 30 q=31.0 size=N/A time=00:01:48.90 bitrate=N/A speed=0.989x    frame= 3318 fps= 30 q=31.0 size=N/A time=00:01:49.40 bitrate=N/A speed=0.989x    frame= 3333 fps= 30 q=31.0 size=N/A time=00:01:49.90 bitrate=N/A speed=0.989x    [dash @ 0x55c3db0c5500] Opening 'http://encoder:8080/ldash/event1/chunk-stream-0-00007.m4s' for writing
[http @ 0x55c3dbf19500] Opening 'http://encoder:8080/ldash/event1/manifest.mpd' for writing
[http @ 0x55c3db55f540] Opening 'http://encoder:8080/ldash/event1/chunk-stream-0-00023.m4s' for writing
frame= 3348 fps= 30 q=31.0 size=N/A time=00:01:50.40 bitrate=N/A speed=0.989x    frame= 3364 fps= 30 q=31.0 size=N/A time=00:01:50.93 bitrate=N/A speed=0.989x    frame= 3379 fps= 30 q=31.0 size=N/A time=00:01:51.43 bitrate=N/A speed=0.989x    frame= 3394 fps= 30 q=31.0 size=N/A time=00:01:51.93 bitrate=N/A speed=0.989x    frame= 3409 fps= 30 q=31.0 size=N/A time=00:01:52.43 bitrate=N/A speed=0.989x    frame= 3424 fps= 30 q=31.0 size=N/A time=00:01:52.93 bitrate=N/A speed=0.989x    frame= 3440 fps= 30 q=31.0 size=N/A time=00:01:53.46 bitrate=N/A speed=0.99x    frame= 3455 fps= 30 q=31.0 size=N/A time=00:01:53.96 bitrate=N/A speed=0.99x    frame= 3470 fps= 30 q=31.0 size=N/A time=00:01:54.46 bitrate=N/A speed=0.99x    frame= 3485 fps= 30 q=31.0 size=N/A time=00:01:54.96 bitrate=N/A speed=0.99x    [dash @ 0x55c3db0c5500] Opening 'http://encoder:8080/ldash/event1/chunk-stream-0-00008.m4s' for writing
[http @ 0x55c3dbf19500] Opening 'http://encoder:8080/ldash/event1/manifest.mpd' for writing
[http @ 0x55c3db55f540] Opening 'http://encoder:8080/ldash/event1/chunk-stream-0-00024.m4s' for writing
frame= 3500 fps= 30 q=32.0 size=N/A time=00:01:55.46 bitrate=N/A speed=0.99x    frame= 3515 fps= 30 q=31.0 size=N/A time=00:01:55.96 bitrate=N/A speed=0.99x    frame= 3530 fps= 30 q=31.0 size=N/A time=00:01:56.46 bitrate=N/A speed=0.99x    frame= 3546 fps= 30 q=31.0 size=N/A time=00:01:57.00 bitrate=N/A speed=0.99x    frame= 3561 fps= 30 q=31.0 size=N/A time=00:01:57.50 bitrate=N/A speed=0.99x    frame= 3576 fps= 30 q=31.0 size=N/A time=00:01:58.00 bitrate=N/A speed=0.99x    frame= 3591 fps= 30 q=31.0 size=N/A time=00:01:58.50 bitrate=N/A speed=0.99x    frame= 3606 fps= 30 q=31.0 size=N/A time=00:01:59.00 bitrate=N/A speed=0.99x    frame= 3621 fps= 30 q=31.0 size=N/A time=00:01:59.50 bitrate=N/A speed=0.99x    [dash @ 0x55c3db0c5500] Opening 'http://encoder:8080/ldash/event1/chunk-stream-0-00009.m4s' for writing
[http @ 0x55c3dbf19500] Opening 'http://encoder:8080/ldash/event1/manifest.mpd' for writing
[http @ 0x55c3db55f540] Opening 'http://encoder:8080/ldash/event1/chunk-stream-0-00025.m4s' for writing
frame= 3636 fps= 30 q=31.0 size=N/A time=00:02:00.00 bitrate=N/A speed=0.99x    frame= 3651 fps= 30 q=31.0 size=N/A time=00:02:00.50 bitrate=N/A speed=0.99x    frame= 3667 fps= 30 q=31.0 size=N/A time=00:02:01.03 bitrate=N/A speed=0.99x    frame= 3682 fps= 30 q=31.0 size=N/A time=00:02:01.53 bitrate=N/A speed=0.99x    frame= 3697 fps= 30 q=31.0 size=N/A time=00:02:02.03 bitrate=N/A speed=0.99x    frame= 3712 fps= 30 q=31.0 size=N/A time=00:02:02.53 bitrate=N/A speed=0.99x    frame= 3727 fps= 30 q=31.0 size=N/A time=00:02:03.03 bitrate=N/A speed=0.99x    frame= 3742 fps= 30 q=31.0 size=N/A time=00:02:03.53 bitrate=N/A speed=0.99x    frame= 3758 fps= 30 q=31.0 size=N/A time=00:02:04.06 bitrate=N/A speed=0.99x    frame= 3773 fps= 30 q=31.0 size=N/A time=00:02:04.56 bitrate=N/A speed=0.99x    [dash @ 0x55c3db0c5500] Opening 'http://encoder:8080/ldash/event1/chunk-stream-0-00010.m4s' for writing
[http @ 0x55c3dbf19500] Opening 'http://encoder:8080/ldash/event1/manifest.mpd' for writing
[http @ 0x55c3db55f540] Opening 'http://encoder:8080/ldash/event1/chunk-stream-0-00026.m4s' for writing
frame= 3788 fps= 30 q=31.0 size=N/A time=00:02:05.06 bitrate=N/A speed=0.99x    frame= 3803 fps= 30 q=31.0 size=N/A time=00:02:05.56 bitrate=N/A speed=0.99x    frame= 3818 fps= 30 q=31.0 size=N/A time=00:02:06.06 bitrate=N/A speed=0.99x    frame= 3833 fps= 30 q=31.0 size=N/A time=00:02:06.56 bitrate=N/A speed=0.99x    frame= 3848 fps= 30 q=31.0 size=N/A time=00:02:07.06 bitrate=N/A speed=0.99x    frame= 3864 fps= 30 q=31.0 size=N/A time=00:02:07.60 bitrate=N/A speed=0.991x    frame= 3879 fps= 30 q=31.0 size=N/A time=00:02:08.10 bitrate=N/A speed=0.991x    frame= 3894 fps= 30 q=31.0 size=N/A time=00:02:08.60 bitrate=N/A speed=0.991x    frame= 3909 fps= 30 q=31.0 size=N/A time=00:02:09.10 bitrate=N/A speed=0.991x    frame= 3924 fps= 30 q=31.0 size=N/A time=00:02:09.60 bitrate=N/A speed=0.991x    [dash @ 0x55c3db0c5500] Opening 'http://encoder:8080/ldash/event1/chunk-stream-0-00011.m4s' for writing
[http @ 0x55c3dbf19500] Opening 'http://encoder:8080/ldash/event1/manifest.mpd' for writing
[http @ 0x55c3db55f540] Opening 'http://encoder:8080/ldash/event1/chunk-stream-0-00027.m4s' for writing
frame= 3939 fps= 30 q=31.0 size=N/A time=00:02:10.10 bitrate=N/A speed=0.991x    frame= 3954 fps= 30 q=31.0 size=N/A time=00:02:10.60 bitrate=N/A speed=0.991x    frame= 3969 fps= 30 q=31.0 size=N/A time=00:02:11.10 bitrate=N/A speed=0.991x    frame= 3985 fps= 30 q=31.0 size=N/A time=00:02:11.63 bitrate=N/A speed=0.991x    frame= 4000 fps= 30 q=31.0 size=N/A time=00:02:12.13 bitrate=N/A speed=0.991x    frame= 4015 fps= 30 q=31.0 size=N/A time=00:02:12.63 bitrate=N/A speed=0.991x    frame= 4030 fps= 30 q=31.0 size=N/A time=00:02:13.13 bitrate=N/A speed=0.991x    frame= 4045 fps= 30 q=31.0 size=N/A time=00:02:13.63 bitrate=N/A speed=0.991x    frame= 4060 fps= 30 q=31.0 size=N/A time=00:02:14.13 bitrate=N/A speed=0.991x    frame= 4076 fps= 30 q=31.0 size=N/A time=00:02:14.66 bitrate=N/A speed=0.991x    [dash @ 0x55c3db0c5500] Opening 'http://encoder:8080/ldash/event1/chunk-stream-0-00012.m4s' for writing
[http @ 0x55c3dbf19500] Opening 'http://encoder:8080/ldash/event1/manifest.mpd' for writing
[http @ 0x55c3db55f540] Opening 'http://encoder:8080/ldash/event1/chunk-stream-0-00028.m4s' for writing
frame= 4091 fps= 30 q=31.0 size=N/A time=00:02:15.16 bitrate=N/A speed=0.991x    frame= 4106 fps= 30 q=31.0 size=N/A time=00:02:15.66 bitrate=N/A speed=0.991x    frame= 4121 fps= 30 q=31.0 size=N/A time=00:02:16.16 bitrate=N/A speed=0.991x    frame= 4136 fps= 30 q=31.0 size=N/A time=00:02:16.66 bitrate=N/A speed=0.991x    frame= 4151 fps= 30 q=31.0 size=N/A time=00:02:17.16 bitrate=N/A speed=0.991x    frame= 4166 fps= 30 q=31.0 size=N/A time=00:02:17.66 bitrate=N/A speed=0.991x    frame= 4181 fps= 30 q=31.0 size=N/A time=00:02:18.16 bitrate=N/A speed=0.991x    frame= 4196 fps= 30 q=31.0 size=N/A time=00:02:18.66 bitrate=N/A speed=0.991x    frame= 4211 fps= 30 q=31.0 size=N/A time=00:02:19.16 bitrate=N/A speed=0.991x    frame= 4227 fps= 30 q=31.0 size=N/A time=00:02:19.70 bitrate=N/A speed=0.991x    [dash @ 0x55c3db0c5500] Opening 'http://encoder:8080/ldash/event1/chunk-stream-0-00013.m4s' for writing
[http @ 0x55c3dbf19500] Opening 'http://encoder:8080/ldash/event1/manifest.mpd' for writing
[http @ 0x55c3db55f540] Opening 'http://encoder:8080/ldash/event1/chunk-stream-0-00029.m4s' for writing
frame= 4242 fps= 30 q=31.0 size=N/A time=00:02:20.20 bitrate=N/A speed=0.991x    frame= 4257 fps= 30 q=31.0 size=N/A time=00:02:20.70 bitrate=N/A speed=0.991x    frame= 4272 fps= 30 q=31.0 size=N/A time=00:02:21.20 bitrate=N/A speed=0.991x    frame= 4287 fps= 30 q=31.0 size=N/A time=00:02:21.70 bitrate=N/A speed=0.991x    frame= 4302 fps= 30 q=31.0 size=N/A time=00:02:22.20 bitrate=N/A speed=0.991x    frame= 4318 fps= 30 q=31.0 size=N/A time=00:02:22.73 bitrate=N/A speed=0.992x    frame= 4333 fps= 30 q=31.0 size=N/A time=00:02:23.23 bitrate=N/A speed=0.992x    frame= 4348 fps= 30 q=31.0 size=N/A time=00:02:23.73 bitrate=N/A speed=0.992x    frame= 4363 fps= 30 q=29.0 size=N/A time=00:02:24.23 bitrate=N/A speed=0.992x    frame= 4379 fps= 30 q=31.0 size=N/A time=00:02:24.76 bitrate=N/A speed=0.992x    [dash @ 0x55c3db0c5500] Opening 'http://encoder:8080/ldash/event1/chunk-stream-0-00014.m4s' for writing
[http @ 0x55c3dbf19500] Opening 'http://encoder:8080/ldash/event1/manifest.mpd' for writing
[http @ 0x55c3db55f540] Opening 'http://encoder:8080/ldash/event1/chunk-stream-0-00030.m4s' for writing
frame= 4394 fps= 30 q=31.0 size=N/A time=00:02:25.26 bitrate=N/A speed=0.992x    frame= 4409 fps= 30 q=31.0 size=N/A time=00:02:25.76 bitrate=N/A speed=0.992x    frame= 4424 fps= 30 q=31.0 size=N/A time=00:02:26.26 bitrate=N/A speed=0.992x    frame= 4439 fps= 30 q=31.0 size=N/A time=00:02:26.76 bitrate=N/A speed=0.992x    frame= 4454 fps= 30 q=31.0 size=N/A time=00:02:27.26 bitrate=N/A speed=0.992x    frame= 4469 fps= 30 q=31.0 size=N/A time=00:02:27.76 bitrate=N/A speed=0.992x    frame= 4484 fps= 30 q=31.0 size=N/A time=00:02:28.26 bitrate=N/A speed=0.992x    frame= 4499 fps= 30 q=31.0 size=N/A time=00:02:28.76 bitrate=N/A speed=0.992x    frame= 4515 fps= 30 q=31.0 size=N/A time=00:02:29.30 bitrate=N/A speed=0.992x    frame= 4530 fps= 30 q=31.0 size=N/A time=00:02:29.80 bitrate=N/A speed=0.992x    [dash @ 0x55c3db0c5500] Opening 'http://encoder:8080/ldash/event1/chunk-stream-0-00015.m4s' for writing
[http @ 0x55c3dbf19500] Opening 'http://encoder:8080/ldash/event1/manifest.mpd' for writing
[http @ 0x55c3db55f540] Opening 'http://encoder:8080/ldash/event1/chunk-stream-0-00031.m4s' for writing
frame= 4545 fps= 30 q=31.0 size=N/A time=00:02:30.30 bitrate=N/A speed=0.992x    frame= 4560 fps= 30 q=32.0 size=N/A time=00:02:30.80 bitrate=N/A speed=0.992x    frame= 4575 fps= 30 q=31.0 size=N/A time=00:02:31.30 bitrate=N/A speed=0.992x    frame= 4590 fps= 30 q=31.0 size=N/A time=00:02:31.80 bitrate=N/A speed=0.992x    frame= 4605 fps= 30 q=31.0 size=N/A time=00:02:32.30 bitrate=N/A speed=0.992x    frame= 4621 fps= 30 q=31.0 size=N/A time=00:02:32.83 bitrate=N/A speed=0.992x    frame= 4636 fps= 30 q=31.0 size=N/A time=00:02:33.33 bitrate=N/A speed=0.992x    frame= 4651 fps= 30 q=31.0 size=N/A time=00:02:33.83 bitrate=N/A speed=0.992x    frame= 4666 fps= 30 q=31.0 size=N/A time=00:02:34.33 bitrate=N/A speed=0.992x    frame= 4681 fps= 30 q=32.0 size=N/A time=00:02:34.83 bitrate=N/A speed=0.992x    [dash @ 0x55c3db0c5500] Opening 'http://encoder:8080/ldash/event1/chunk-stream-0-00016.m4s' for writing
[http @ 0x55c3dbf19500] Opening 'http://encoder:8080/ldash/event1/manifest.mpd' for writing
[http @ 0x55c3db55f540] Opening 'http://encoder:8080/ldash/event1/chunk-stream-0-00032.m4s' for writing
frame= 4696 fps= 30 q=32.0 size=N/A time=00:02:35.33 bitrate=N/A speed=0.992x    frame= 4712 fps= 30 q=31.0 size=N/A time=00:02:35.86 bitrate=N/A speed=0.992x    frame= 4727 fps= 30 q=31.0 size=N/A time=00:02:36.36 bitrate=N/A speed=0.992x    frame= 4742 fps= 30 q=31.0 size=N/A time=00:02:36.86 bitrate=N/A speed=0.992x    frame= 4757 fps= 30 q=31.0 size=N/A time=00:02:37.36 bitrate=N/A speed=0.992x    frame= 4772 fps= 30 q=31.0 size=N/A time=00:02:37.86 bitrate=N/A speed=0.992x    frame= 4787 fps= 30 q=31.0 size=N/A time=00:02:38.36 bitrate=N/A speed=0.992x    frame= 4803 fps= 30 q=31.0 size=N/A time=00:02:38.90 bitrate=N/A speed=0.992x    frame= 4818 fps= 30 q=32.0 size=N/A time=00:02:39.40 bitrate=N/A speed=0.992x    frame= 4833 fps= 30 q=32.0 size=N/A time=00:02:39.90 bitrate=N/A speed=0.993x    [dash @ 0x55c3db0c5500] Opening 'http://encoder:8080/ldash/event1/chunk-stream-0-00017.m4s' for writing
[http @ 0x55c3dbf19500] Opening 'http://encoder:8080/ldash/event1/manifest.mpd' for writing
[http @ 0x55c3db55f540] Opening 'http://encoder:8080/ldash/event1/chunk-stream-0-00033.m4s' for writing
frame= 4848 fps= 30 q=32.0 size=N/A time=00:02:40.40 bitrate=N/A speed=0.992x    frame= 4863 fps= 30 q=32.0 size=N/A time=00:02:40.90 bitrate=N/A speed=0.992x    frame= 4879 fps= 30 q=31.0 size=N/A time=00:02:41.43 bitrate=N/A speed=0.993x    frame= 4894 fps= 30 q=31.0 size=N/A time=00:02:41.93 bitrate=N/A speed=0.993x    frame= 4909 fps= 30 q=32.0 size=N/A time=00:02:42.43 bitrate=N/A speed=0.993x    frame= 4924 fps= 30 q=32.0 size=N/A time=00:02:42.93 bitrate=N/A speed=0.993x    frame= 4939 fps= 30 q=32.0 size=N/A time=00:02:43.43 bitrate=N/A speed=0.993x    frame= 4954 fps= 30 q=31.0 size=N/A time=00:02:43.93 bitrate=N/A speed=0.993x    frame= 4969 fps= 30 q=32.0 size=N/A time=00:02:44.43 bitrate=N/A speed=0.993x    frame= 4985 fps= 30 q=31.0 size=N/A time=00:02:44.96 bitrate=N/A speed=0.993x    [dash @ 0x55c3db0c5500] Opening 'http://encoder:8080/ldash/event1/chunk-stream-0-00018.m4s' for writing
[http @ 0x55c3dbf19500] Opening 'http://encoder:8080/ldash/event1/manifest.mpd' for writing
[http @ 0x55c3db55f540] Opening 'http://encoder:8080/ldash/event1/chunk-stream-0-00034.m4s' for writing
frame= 5000 fps= 30 q=31.0 size=N/A time=00:02:45.46 bitrate=N/A speed=0.993x    frame= 5015 fps= 30 q=31.0 size=N/A time=00:02:45.96 bitrate=N/A speed=0.993x    frame= 5030 fps= 30 q=31.0 size=N/A time=00:02:46.46 bitrate=N/A speed=0.993x    frame= 5045 fps= 30 q=31.0 size=N/A time=00:02:46.96 bitrate=N/A speed=0.993x    frame= 5060 fps= 30 q=31.0 size=N/A time=00:02:47.46 bitrate=N/A speed=0.993x    frame= 5075 fps= 30 q=31.0 size=N/A time=00:02:47.96 bitrate=N/A speed=0.993x    frame= 5091 fps= 30 q=31.0 size=N/A time=00:02:48.50 bitrate=N/A speed=0.993x    frame= 5106 fps= 30 q=31.0 size=N/A time=00:02:49.00 bitrate=N/A speed=0.993x    frame= 5121 fps= 30 q=31.0 size=N/A time=00:02:49.50 bitrate=N/A speed=0.993x    [dash @ 0x55c3db0c5500] Opening 'http://encoder:8080/ldash/event1/chunk-stream-0-00019.m4s' for writing
[http @ 0x55c3dbf19500] Opening 'http://encoder:8080/ldash/event1/manifest.mpd' for writing
[http @ 0x55c3db55f540] Opening 'http://encoder:8080/ldash/event1/chunk-stream-0-00035.m4s' for writing
frame= 5136 fps= 30 q=31.0 size=N/A time=00:02:50.00 bitrate=N/A speed=0.993x    frame= 5151 fps= 30 q=31.0 size=N/A time=00:02:50.50 bitrate=N/A speed=0.993x    frame= 5166 fps= 30 q=31.0 size=N/A time=00:02:51.00 bitrate=N/A speed=0.993x    frame= 5181 fps= 30 q=31.0 size=N/A time=00:02:51.50 bitrate=N/A speed=0.993x    frame= 5197 fps= 30 q=31.0 size=N/A time=00:02:52.03 bitrate=N/A speed=0.993x    frame= 5212 fps= 30 q=31.0 size=N/A time=00:02:52.53 bitrate=N/A speed=0.993x    frame= 5227 fps= 30 q=31.0 size=N/A time=00:02:53.03 bitrate=N/A speed=0.993x    frame= 5242 fps= 30 q=31.0 size=N/A time=00:02:53.53 bitrate=N/A speed=0.993x    frame= 5257 fps= 30 q=31.0 size=N/A time=00:02:54.03 bitrate=N/A speed=0.993x    frame= 5272 fps= 30 q=31.0 size=N/A time=00:02:54.53 bitrate=N/A speed=0.993x    [dash @ 0x55c3db0c5500] Opening 'http://encoder:8080/ldash/event1/chunk-stream-0-00020.m4s' for writing
[http @ 0x55c3dbf19500] Opening 'http://encoder:8080/ldash/event1/manifest.mpd' for writing
[http @ 0x55c3db55f540] Opening 'http://encoder:8080/ldash/event1/chunk-stream-0-00036.m4s' for writing
frame= 5287 fps= 30 q=31.0 size=N/A time=00:02:55.03 bitrate=N/A speed=0.993x    frame= 5302 fps= 30 q=31.0 size=N/A time=00:02:55.53 bitrate=N/A speed=0.993x    frame= 5318 fps= 30 q=31.0 size=N/A time=00:02:56.06 bitrate=N/A speed=0.993x    frame= 5333 fps= 30 q=31.0 size=N/A time=00:02:56.56 bitrate=N/A speed=0.993x    frame= 5348 fps= 30 q=31.0 size=N/A time=00:02:57.06 bitrate=N/A speed=0.993x    frame= 5363 fps= 30 q=31.0 size=N/A time=00:02:57.56 bitrate=N/A speed=0.993x    frame= 5378 fps= 30 q=31.0 size=N/A time=00:02:58.06 bitrate=N/A speed=0.993x    frame= 5393 fps= 30 q=31.0 size=N/A time=00:02:58.56 bitrate=N/A speed=0.993x    frame= 5408 fps= 30 q=31.0 size=N/A time=00:02:59.06 bitrate=N/A speed=0.993x    frame= 5424 fps= 30 q=31.0 size=N/A time=00:02:59.60 bitrate=N/A speed=0.993x    [dash @ 0x55c3db0c5500] Opening 'http://encoder:8080/ldash/event1/chunk-stream-0-00021.m4s' for writing
[http @ 0x55c3dbf19500] Opening 'http://encoder:8080/ldash/event1/manifest.mpd' for writing
[http @ 0x55c3db55f540] Opening 'http://encoder:8080/ldash/event1/chunk-stream-0-00037.m4s' for writing
frame= 5439 fps= 30 q=31.0 size=N/A time=00:03:00.10 bitrate=N/A speed=0.993x    frame= 5454 fps= 30 q=31.0 size=N/A time=00:03:00.60 bitrate=N/A speed=0.993x    frame= 5469 fps= 30 q=31.0 size=N/A time=00:03:01.10 bitrate=N/A speed=0.993x    frame= 5484 fps= 30 q=31.0 size=N/A time=00:03:01.60 bitrate=N/A speed=0.993x    frame= 5499 fps= 30 q=31.0 size=N/A time=00:03:02.10 bitrate=N/A speed=0.993x    frame= 5515 fps= 30 q=31.0 size=N/A time=00:03:02.63 bitrate=N/A speed=0.993x    frame= 5530 fps= 30 q=31.0 size=N/A time=00:03:03.13 bitrate=N/A speed=0.993x    frame= 5545 fps= 30 q=31.0 size=N/A time=00:03:03.63 bitrate=N/A speed=0.993x    frame= 5560 fps= 30 q=31.0 size=N/A time=00:03:04.13 bitrate=N/A speed=0.993x    frame= 5575 fps= 30 q=31.0 size=N/A time=00:03:04.63 bitrate=N/A speed=0.993x    [dash @ 0x55c3db0c5500] Opening 'http://encoder:8080/ldash/event1/chunk-stream-0-00022.m4s' for writing
[http @ 0x55c3dbf19500] Opening 'http://encoder:8080/ldash/event1/manifest.mpd' for writing
[http @ 0x55c3db55f540] Opening 'http://encoder:8080/ldash/event1/chunk-stream-0-00038.m4s' for writing
frame= 5590 fps= 30 q=31.0 size=N/A time=00:03:05.13 bitrate=N/A speed=0.993x    frame= 5605 fps= 30 q=31.0 size=N/A time=00:03:05.63 bitrate=N/A speed=0.993x    frame= 5621 fps= 30 q=31.0 size=N/A time=00:03:06.16 bitrate=N/A speed=0.994x    frame= 5636 fps= 30 q=31.0 size=N/A time=00:03:06.66 bitrate=N/A speed=0.994x    frame= 5651 fps= 30 q=31.0 size=N/A time=00:03:07.16 bitrate=N/A speed=0.994x    frame= 5666 fps= 30 q=31.0 size=N/A time=00:03:07.66 bitrate=N/A speed=0.994x    frame= 5681 fps= 30 q=31.0 size=N/A time=00:03:08.16 bitrate=N/A speed=0.994x    frame= 5696 fps= 30 q=31.0 size=N/A time=00:03:08.66 bitrate=N/A speed=0.994x    frame= 5711 fps= 30 q=31.0 size=N/A time=00:03:09.16 bitrate=N/A speed=0.994x    frame= 5727 fps= 30 q=31.0 size=N/A time=00:03:09.70 bitrate=N/A speed=0.994x    [dash @ 0x55c3db0c5500] Opening 'http://encoder:8080/ldash/event1/chunk-stream-0-00023.m4s' for writing
[http @ 0x55c3dbf19500] Opening 'http://encoder:8080/ldash/event1/manifest.mpd' for writing
[http @ 0x55c3db55f540] Opening 'http://encoder:8080/ldash/event1/chunk-stream-0-00039.m4s' for writing
frame= 5742 fps= 30 q=31.0 size=N/A time=00:03:10.20 bitrate=N/A speed=0.994x    frame= 5757 fps= 30 q=31.0 size=N/A time=00:03:10.70 bitrate=N/A speed=0.994x    frame= 5772 fps= 30 q=31.0 size=N/A time=00:03:11.20 bitrate=N/A speed=0.994x    frame= 5787 fps= 30 q=31.0 size=N/A time=00:03:11.70 bitrate=N/A speed=0.994x    frame= 5802 fps= 30 q=31.0 size=N/A time=00:03:12.20 bitrate=N/A speed=0.994x    frame= 5818 fps= 30 q=31.0 size=N/A time=00:03:12.73 bitrate=N/A speed=0.994x    frame= 5833 fps= 30 q=31.0 size=N/A time=00:03:13.23 bitrate=N/A speed=0.994x    frame= 5848 fps= 30 q=31.0 size=N/A time=00:03:13.73 bitrate=N/A speed=0.994x    frame= 5863 fps= 30 q=29.0 size=N/A time=00:03:14.23 bitrate=N/A speed=0.994x    frame= 5878 fps= 30 q=31.0 size=N/A time=00:03:14.73 bitrate=N/A speed=0.994x    [dash @ 0x55c3db0c5500] Opening 'http://encoder:8080/ldash/event1/chunk-stream-0-00024.m4s' for writing
[http @ 0x55c3dbf19500] Opening 'http://encoder:8080/ldash/event1/manifest.mpd' for writing
[http @ 0x55c3db55f540] Opening 'http://encoder:8080/ldash/event1/chunk-stream-0-00040.m4s' for writing
frame= 5893 fps= 30 q=31.0 size=N/A time=00:03:15.23 bitrate=N/A speed=0.994x    frame= 5908 fps= 30 q=31.0 size=N/A time=00:03:15.73 bitrate=N/A speed=0.994x    frame= 5924 fps= 30 q=31.0 size=N/A time=00:03:16.26 bitrate=N/A speed=0.994x    frame= 5939 fps= 30 q=31.0 size=N/A time=00:03:16.76 bitrate=N/A speed=0.994x    frame= 5954 fps= 30 q=31.0 size=N/A time=00:03:17.26 bitrate=N/A speed=0.994x    frame= 5969 fps= 30 q=31.0 size=N/A time=00:03:17.76 bitrate=N/A speed=0.994x    frame= 5984 fps= 30 q=31.0 size=N/A time=00:03:18.26 bitrate=N/A speed=0.994x    frame= 6000 fps= 30 q=31.0 size=N/A time=00:03:18.80 bitrate=N/A speed=0.994x    frame= 6015 fps= 30 q=31.0 size=N/A time=00:03:19.30 bitrate=N/A speed=0.994x    frame= 6030 fps= 30 q=31.0 size=N/A time=00:03:19.80 bitrate=N/A speed=0.994x    [dash @ 0x55c3db0c5500] Opening 'http://encoder:8080/ldash/event1/chunk-stream-0-00025.m4s' for writing
[http @ 0x55c3dbf19500] Opening 'http://encoder:8080/ldash/event1/manifest.mpd' for writing
[http @ 0x55c3db55f540] Opening 'http://encoder:8080/ldash/event1/chunk-stream-0-00041.m4s' for writing
frame= 6045 fps= 30 q=31.0 size=N/A time=00:03:20.30 bitrate=N/A speed=0.994x    frame= 6060 fps= 30 q=31.0 size=N/A time=00:03:20.80 bitrate=N/A speed=0.994x    frame= 6075 fps= 30 q=31.0 size=N/A time=00:03:21.30 bitrate=N/A speed=0.994x    frame= 6090 fps= 30 q=31.0 size=N/A time=00:03:21.80 bitrate=N/A speed=0.994x    frame= 6106 fps= 30 q=31.0 size=N/A time=00:03:22.33 bitrate=N/A speed=0.994x    frame= 6121 fps= 30 q=31.0 size=N/A time=00:03:22.83 bitrate=N/A speed=0.994x    frame= 6136 fps= 30 q=31.0 size=N/A time=00:03:23.33 bitrate=N/A speed=0.994x    frame= 6151 fps= 30 q=31.0 size=N/A time=00:03:23.83 bitrate=N/A speed=0.994x    frame= 6166 fps= 30 q=31.0 size=N/A time=00:03:24.33 bitrate=N/A speed=0.994x    frame= 6181 fps= 30 q=31.0 size=N/A time=00:03:24.83 bitrate=N/A speed=0.994x    [dash @ 0x55c3db0c5500] Opening 'http://encoder:8080/ldash/event1/chunk-stream-0-00026.m4s' for writing
[tcp @ 0x55c3dbf3d840] Connection to tcp://encoder:8080 failed: Connection refused
[dash @ 0x55c3db0c5500] failed to delete http://encoder:8080/ldash/event1/chunk-stream-0-00026.m4s
Assertion http_url_context failed at libavformat/dashenc.c:184
